@startuml contractGovernance

package "GovernedContract Vat" <<Rectangle>>  {
    Object ParamManager {
        paramDesc[] { name, type, value }
        --
        +getParams()
        +getParam()
        -updateFoo()
    }

    class GovernedContract {
        <i>verifiable</i>: Governor, params, governedApis
        --
        +terms: { electionManager, governedParams }
        +getState()
        -getParamMgrRetriever()
    }
    note  left : calls buildParamManager(paramDesc);\nmakes paramMgr state public\nreturns paramMgr in creatorFacet
}

class "ContractGovernor\n(an ElectionManager)" as ContractGovernor {
    <i>verifiable</i>: governedInstance, electorateInstance
    --
    +getElectorate()
    +getGovernedContract() - the governed instance
    +validateVoteCounter()
    +validateElectorate()
    +validateTimer()
    --
    -voteOnParamChange()
    -voteOnApiInvocation()
    -getCreatorFacet() - The unrestricted part of the governed contract's creatorFacet
}
note left : ContractGovernor starts GovernedContract.\nvoteOnParamChange() and voteOnApiInvocation()\nshould be tightly held. getCreatorFacet()\nis for the contract's creator.

class Electorate {
    Questions
    ===
    -addQuestion()
}

GovernedContract ..> ParamManager : creates >
GovernedContract --> ParamManager : access\nto params
ContractGovernor ..> GovernedContract : creates >
ContractGovernor --> Electorate
ContractGovernor ==> ParamManager : manages\nparams

@enduml
